<mxfile host="app.diagrams.net" modified="2024-03-13T12:15:52.637Z" agent="Mozilla/5.0 (Macintosh; Intel Mac OS X 10_15_7) AppleWebKit/537.36 (KHTML, like Gecko) Chrome/121.0.0.0 Safari/537.36" etag="dmWW-akrU-ofdLBBVvWa" version="24.0.5" type="github">
  <diagram name="第 1 页" id="CWfcNhCpsoAy0Gfa8W2B">
    <mxGraphModel dx="1306" dy="727" grid="1" gridSize="10" guides="1" tooltips="1" connect="1" arrows="1" fold="1" page="1" pageScale="1" pageWidth="2339" pageHeight="3300" math="0" shadow="0">
      <root>
        <mxCell id="0" />
        <mxCell id="1" parent="0" />
        <mxCell id="Iig9CXE_6_gS4VW2nJkb-11" style="edgeStyle=orthogonalEdgeStyle;rounded=0;orthogonalLoop=1;jettySize=auto;html=1;" edge="1" parent="1" source="Iig9CXE_6_gS4VW2nJkb-5" target="Iig9CXE_6_gS4VW2nJkb-8">
          <mxGeometry relative="1" as="geometry" />
        </mxCell>
        <mxCell id="Iig9CXE_6_gS4VW2nJkb-13" style="edgeStyle=orthogonalEdgeStyle;rounded=0;orthogonalLoop=1;jettySize=auto;html=1;" edge="1" parent="1" source="Iig9CXE_6_gS4VW2nJkb-5" target="Iig9CXE_6_gS4VW2nJkb-10">
          <mxGeometry relative="1" as="geometry" />
        </mxCell>
        <mxCell id="Iig9CXE_6_gS4VW2nJkb-5" value="&lt;pre style=&quot;background-color: rgb(255, 255, 255); color: rgb(8, 8, 8); font-size: 12.8pt;&quot;&gt;&lt;span style=&quot;color: rgb(0, 0, 0);&quot;&gt;&lt;font face=&quot;Comic Sans MS&quot;&gt;Source1&lt;/font&gt;&lt;/span&gt;&lt;/pre&gt;&lt;pre style=&quot;background-color: rgb(255, 255, 255); color: rgb(8, 8, 8); font-size: 12.8pt;&quot;&gt;&lt;span style=&quot;color: rgb(0, 0, 0);&quot;&gt;&lt;font face=&quot;Comic Sans MS&quot;&gt;Coordinator&lt;/font&gt;&lt;/span&gt;&lt;/pre&gt;" style="shape=hexagon;perimeter=hexagonPerimeter2;whiteSpace=wrap;html=1;fixedSize=1;sketch=1;curveFitting=1;jiggle=2;rounded=1;" vertex="1" parent="1">
          <mxGeometry x="350" y="620" width="150" height="110" as="geometry" />
        </mxCell>
        <mxCell id="Iig9CXE_6_gS4VW2nJkb-17" style="edgeStyle=orthogonalEdgeStyle;rounded=0;orthogonalLoop=1;jettySize=auto;html=1;entryX=0.5;entryY=0;entryDx=0;entryDy=0;" edge="1" parent="1" source="Iig9CXE_6_gS4VW2nJkb-6" target="Iig9CXE_6_gS4VW2nJkb-14">
          <mxGeometry relative="1" as="geometry" />
        </mxCell>
        <mxCell id="Iig9CXE_6_gS4VW2nJkb-18" style="edgeStyle=orthogonalEdgeStyle;rounded=0;orthogonalLoop=1;jettySize=auto;html=1;entryX=0.5;entryY=0;entryDx=0;entryDy=0;" edge="1" parent="1" source="Iig9CXE_6_gS4VW2nJkb-6" target="Iig9CXE_6_gS4VW2nJkb-15">
          <mxGeometry relative="1" as="geometry" />
        </mxCell>
        <mxCell id="Iig9CXE_6_gS4VW2nJkb-6" value="&lt;pre style=&quot;background-color: rgb(255, 255, 255); color: rgb(8, 8, 8); font-size: 12.8pt;&quot;&gt;&lt;span style=&quot;color: rgb(0, 0, 0);&quot;&gt;&lt;font face=&quot;Comic Sans MS&quot;&gt;Source2&lt;/font&gt;&lt;/span&gt;&lt;/pre&gt;&lt;pre style=&quot;background-color: rgb(255, 255, 255); color: rgb(8, 8, 8); font-size: 12.8pt;&quot;&gt;&lt;span style=&quot;color: rgb(0, 0, 0);&quot;&gt;&lt;font face=&quot;Comic Sans MS&quot;&gt;Coordinator&lt;/font&gt;&lt;/span&gt;&lt;/pre&gt;" style="shape=hexagon;perimeter=hexagonPerimeter2;whiteSpace=wrap;html=1;fixedSize=1;sketch=1;curveFitting=1;jiggle=2;rounded=1;" vertex="1" parent="1">
          <mxGeometry x="740" y="620" width="150" height="110" as="geometry" />
        </mxCell>
        <mxCell id="Iig9CXE_6_gS4VW2nJkb-8" value="&lt;font style=&quot;font-size: 16px;&quot;&gt;Reader1&lt;/font&gt;" style="ellipse;whiteSpace=wrap;html=1;sketch=1;curveFitting=1;jiggle=2;fontSize=16;fontFamily=Comic Sans MS;" vertex="1" parent="1">
          <mxGeometry x="270" y="830" width="80" height="70" as="geometry" />
        </mxCell>
        <mxCell id="Iig9CXE_6_gS4VW2nJkb-10" value="&lt;font style=&quot;font-size: 16px;&quot;&gt;Reader2&lt;/font&gt;" style="ellipse;whiteSpace=wrap;html=1;sketch=1;curveFitting=1;jiggle=2;fontFamily=Comic Sans MS;fontSize=16;" vertex="1" parent="1">
          <mxGeometry x="480" y="830" width="80" height="70" as="geometry" />
        </mxCell>
        <mxCell id="Iig9CXE_6_gS4VW2nJkb-14" value="&lt;font style=&quot;font-size: 16px;&quot;&gt;Reader1&lt;/font&gt;" style="ellipse;whiteSpace=wrap;html=1;sketch=1;curveFitting=1;jiggle=2;fontFamily=Comic Sans MS;fontSize=16;" vertex="1" parent="1">
          <mxGeometry x="680" y="830" width="80" height="70" as="geometry" />
        </mxCell>
        <mxCell id="Iig9CXE_6_gS4VW2nJkb-15" value="&lt;font style=&quot;font-size: 16px;&quot;&gt;Reader2&lt;/font&gt;" style="ellipse;whiteSpace=wrap;html=1;sketch=1;curveFitting=1;jiggle=2;fontSize=16;fontFamily=Comic Sans MS;" vertex="1" parent="1">
          <mxGeometry x="890" y="830" width="80" height="70" as="geometry" />
        </mxCell>
        <mxCell id="Iig9CXE_6_gS4VW2nJkb-19" value="RecordAttribute" style="text;html=1;align=center;verticalAlign=middle;whiteSpace=wrap;rounded=0;" vertex="1" parent="1">
          <mxGeometry x="220" y="740" width="60" height="30" as="geometry" />
        </mxCell>
        <mxCell id="Iig9CXE_6_gS4VW2nJkb-21" value="" style="edgeStyle=orthogonalEdgeStyle;rounded=0;orthogonalLoop=1;jettySize=auto;html=1;flowAnimation=0;sketch=1;curveFitting=1;jiggle=2;" edge="1" parent="1" source="Iig9CXE_6_gS4VW2nJkb-20" target="Iig9CXE_6_gS4VW2nJkb-5">
          <mxGeometry relative="1" as="geometry" />
        </mxCell>
        <mxCell id="Iig9CXE_6_gS4VW2nJkb-22" value="isBacklogEvent" style="edgeLabel;html=1;align=center;verticalAlign=middle;resizable=0;points=[];fontSize=16;fontFamily=Comic Sans MS;" vertex="1" connectable="0" parent="Iig9CXE_6_gS4VW2nJkb-21">
          <mxGeometry x="-0.0429" y="-3" relative="1" as="geometry">
            <mxPoint y="1" as="offset" />
          </mxGeometry>
        </mxCell>
        <mxCell id="Iig9CXE_6_gS4VW2nJkb-20" value="Source1&lt;div style=&quot;font-size: 15px;&quot;&gt;&amp;nbsp;Enumerator&lt;/div&gt;" style="rounded=1;whiteSpace=wrap;html=1;fontFamily=Comic Sans MS;sketch=1;curveFitting=1;jiggle=2;fontSize=15;" vertex="1" parent="1">
          <mxGeometry x="365" y="490" width="120" height="60" as="geometry" />
        </mxCell>
        <mxCell id="Iig9CXE_6_gS4VW2nJkb-26" value="" style="edgeStyle=orthogonalEdgeStyle;rounded=0;orthogonalLoop=1;jettySize=auto;html=1;flowAnimation=0;sketch=1;curveFitting=1;jiggle=2;" edge="1" parent="1" source="Iig9CXE_6_gS4VW2nJkb-28">
          <mxGeometry relative="1" as="geometry">
            <mxPoint x="820" y="620" as="targetPoint" />
          </mxGeometry>
        </mxCell>
        <mxCell id="Iig9CXE_6_gS4VW2nJkb-27" value="isBacklogEvent" style="edgeLabel;html=1;align=center;verticalAlign=middle;resizable=0;points=[];fontSize=16;fontFamily=Comic Sans MS;" vertex="1" connectable="0" parent="Iig9CXE_6_gS4VW2nJkb-26">
          <mxGeometry x="-0.0429" y="-3" relative="1" as="geometry">
            <mxPoint y="1" as="offset" />
          </mxGeometry>
        </mxCell>
        <mxCell id="Iig9CXE_6_gS4VW2nJkb-28" value="Source2&lt;div style=&quot;font-size: 15px;&quot;&gt;&amp;nbsp;Enumerator&lt;/div&gt;" style="rounded=1;whiteSpace=wrap;html=1;fontFamily=Comic Sans MS;sketch=1;curveFitting=1;jiggle=2;fontSize=15;" vertex="1" parent="1">
          <mxGeometry x="760" y="490" width="120" height="60" as="geometry" />
        </mxCell>
        <mxCell id="Iig9CXE_6_gS4VW2nJkb-71" value="" style="group" vertex="1" connectable="0" parent="1">
          <mxGeometry x="880" y="900" width="340" height="580" as="geometry" />
        </mxCell>
        <mxCell id="Iig9CXE_6_gS4VW2nJkb-29" style="edgeStyle=orthogonalEdgeStyle;rounded=0;orthogonalLoop=1;jettySize=auto;html=1;sketch=1;curveFitting=1;jiggle=2;" edge="1" parent="Iig9CXE_6_gS4VW2nJkb-71" source="Iig9CXE_6_gS4VW2nJkb-31" target="Iig9CXE_6_gS4VW2nJkb-32">
          <mxGeometry relative="1" as="geometry" />
        </mxCell>
        <mxCell id="Iig9CXE_6_gS4VW2nJkb-30" style="edgeStyle=orthogonalEdgeStyle;rounded=0;orthogonalLoop=1;jettySize=auto;html=1;sketch=1;curveFitting=1;jiggle=2;" edge="1" parent="Iig9CXE_6_gS4VW2nJkb-71" source="Iig9CXE_6_gS4VW2nJkb-31" target="Iig9CXE_6_gS4VW2nJkb-33">
          <mxGeometry relative="1" as="geometry" />
        </mxCell>
        <mxCell id="Iig9CXE_6_gS4VW2nJkb-31" value="&lt;pre style=&quot;background-color: rgb(255, 255, 255); font-size: 12.8pt;&quot;&gt;&lt;font face=&quot;Comic Sans MS&quot;&gt;HybridSource&lt;/font&gt;&lt;/pre&gt;&lt;pre style=&quot;background-color: rgb(255, 255, 255); color: rgb(8, 8, 8); font-size: 12.8pt;&quot;&gt;&lt;span style=&quot;color: rgb(0, 0, 0);&quot;&gt;&lt;font face=&quot;Comic Sans MS&quot;&gt;Coordinator&lt;/font&gt;&lt;/span&gt;&lt;/pre&gt;" style="shape=hexagon;perimeter=hexagonPerimeter2;whiteSpace=wrap;html=1;fixedSize=1;sketch=1;curveFitting=1;jiggle=2;rounded=1;" vertex="1" parent="Iig9CXE_6_gS4VW2nJkb-71">
          <mxGeometry x="100" y="170" width="150" height="110" as="geometry" />
        </mxCell>
        <mxCell id="Iig9CXE_6_gS4VW2nJkb-41" style="edgeStyle=orthogonalEdgeStyle;rounded=0;orthogonalLoop=1;jettySize=auto;html=1;sketch=1;curveFitting=1;jiggle=2;" edge="1" parent="Iig9CXE_6_gS4VW2nJkb-71" source="Iig9CXE_6_gS4VW2nJkb-32" target="Iig9CXE_6_gS4VW2nJkb-43">
          <mxGeometry relative="1" as="geometry">
            <mxPoint x="60" y="540" as="targetPoint" />
          </mxGeometry>
        </mxCell>
        <mxCell id="Iig9CXE_6_gS4VW2nJkb-32" value="&lt;font style=&quot;font-size: 16px;&quot;&gt;Reader1&lt;/font&gt;" style="ellipse;whiteSpace=wrap;html=1;sketch=1;curveFitting=1;jiggle=2;fontSize=16;fontFamily=Comic Sans MS;" vertex="1" parent="Iig9CXE_6_gS4VW2nJkb-71">
          <mxGeometry x="20" y="380" width="80" height="70" as="geometry" />
        </mxCell>
        <mxCell id="Iig9CXE_6_gS4VW2nJkb-33" value="&lt;font style=&quot;font-size: 16px;&quot;&gt;Reader2&lt;/font&gt;" style="ellipse;whiteSpace=wrap;html=1;sketch=1;curveFitting=1;jiggle=2;fontFamily=Comic Sans MS;fontSize=16;" vertex="1" parent="Iig9CXE_6_gS4VW2nJkb-71">
          <mxGeometry x="240" y="380" width="80" height="70" as="geometry" />
        </mxCell>
        <mxCell id="Iig9CXE_6_gS4VW2nJkb-34" value="isBacklogEvent" style="text;html=1;align=center;verticalAlign=middle;whiteSpace=wrap;rounded=0;fontFamily=Comic Sans MS;fontSize=16;" vertex="1" parent="Iig9CXE_6_gS4VW2nJkb-71">
          <mxGeometry x="40" y="290" width="60" height="30" as="geometry" />
        </mxCell>
        <mxCell id="Iig9CXE_6_gS4VW2nJkb-35" value="" style="edgeStyle=orthogonalEdgeStyle;rounded=0;orthogonalLoop=1;jettySize=auto;html=1;flowAnimation=0;sketch=1;curveFitting=1;jiggle=2;" edge="1" parent="Iig9CXE_6_gS4VW2nJkb-71" source="Iig9CXE_6_gS4VW2nJkb-37" target="Iig9CXE_6_gS4VW2nJkb-31">
          <mxGeometry relative="1" as="geometry" />
        </mxCell>
        <mxCell id="Iig9CXE_6_gS4VW2nJkb-38" value="&lt;div style=&quot;border-color: var(--border-color); font-size: 16px; color: rgb(8, 8, 8);&quot;&gt;&lt;font style=&quot;border-color: var(--border-color); font-size: 16px;&quot;&gt;EnumeratorContext#setIsProcessingBacklog&lt;/font&gt;&lt;/div&gt;" style="edgeLabel;html=1;align=center;verticalAlign=middle;resizable=0;points=[];fontFamily=Comic Sans MS;fontSize=16;" vertex="1" connectable="0" parent="Iig9CXE_6_gS4VW2nJkb-35">
          <mxGeometry relative="1" as="geometry">
            <mxPoint as="offset" />
          </mxGeometry>
        </mxCell>
        <mxCell id="Iig9CXE_6_gS4VW2nJkb-37" value="&lt;div style=&quot;font-size: 15px;&quot;&gt;HybridSource Enumerator&lt;/div&gt;" style="rounded=1;whiteSpace=wrap;html=1;fontFamily=Comic Sans MS;sketch=1;curveFitting=1;jiggle=2;fontSize=15;" vertex="1" parent="Iig9CXE_6_gS4VW2nJkb-71">
          <mxGeometry x="115" width="120" height="60" as="geometry" />
        </mxCell>
        <mxCell id="Iig9CXE_6_gS4VW2nJkb-40" value="isBacklogEvent" style="text;html=1;align=center;verticalAlign=middle;whiteSpace=wrap;rounded=0;fontFamily=Comic Sans MS;fontSize=16;" vertex="1" parent="Iig9CXE_6_gS4VW2nJkb-71">
          <mxGeometry x="250" y="290" width="60" height="30" as="geometry" />
        </mxCell>
        <mxCell id="Iig9CXE_6_gS4VW2nJkb-43" value="&lt;font style=&quot;font-size: 14px;&quot; face=&quot;Comic Sans MS&quot;&gt;Record&lt;/font&gt;&lt;div&gt;&lt;font style=&quot;font-size: 14px;&quot; face=&quot;Comic Sans MS&quot;&gt;Attribute&lt;/font&gt;&lt;/div&gt;" style="ellipse;shape=cloud;whiteSpace=wrap;html=1;sketch=1;curveFitting=1;jiggle=2;" vertex="1" parent="Iig9CXE_6_gS4VW2nJkb-71">
          <mxGeometry y="500" width="120" height="80" as="geometry" />
        </mxCell>
        <mxCell id="Iig9CXE_6_gS4VW2nJkb-44" value="&lt;font style=&quot;font-size: 14px;&quot; face=&quot;Comic Sans MS&quot;&gt;Record&lt;/font&gt;&lt;div&gt;&lt;font style=&quot;font-size: 14px;&quot; face=&quot;Comic Sans MS&quot;&gt;Attribute&lt;/font&gt;&lt;/div&gt;" style="ellipse;shape=cloud;whiteSpace=wrap;html=1;sketch=1;curveFitting=1;jiggle=2;" vertex="1" parent="Iig9CXE_6_gS4VW2nJkb-71">
          <mxGeometry x="220" y="500" width="120" height="80" as="geometry" />
        </mxCell>
        <mxCell id="Iig9CXE_6_gS4VW2nJkb-46" style="edgeStyle=orthogonalEdgeStyle;rounded=0;orthogonalLoop=1;jettySize=auto;html=1;entryX=0.5;entryY=0.1;entryDx=0;entryDy=0;entryPerimeter=0;sketch=1;curveFitting=1;jiggle=2;" edge="1" parent="Iig9CXE_6_gS4VW2nJkb-71" source="Iig9CXE_6_gS4VW2nJkb-33" target="Iig9CXE_6_gS4VW2nJkb-44">
          <mxGeometry relative="1" as="geometry" />
        </mxCell>
        <mxCell id="Iig9CXE_6_gS4VW2nJkb-100" value="" style="group" vertex="1" connectable="0" parent="1">
          <mxGeometry x="710" y="2420" width="650" height="390" as="geometry" />
        </mxCell>
        <mxCell id="Iig9CXE_6_gS4VW2nJkb-83" value="" style="rounded=1;whiteSpace=wrap;html=1;sketch=1;curveFitting=1;jiggle=2;" vertex="1" parent="Iig9CXE_6_gS4VW2nJkb-100">
          <mxGeometry x="60" width="530" height="390" as="geometry" />
        </mxCell>
        <mxCell id="Iig9CXE_6_gS4VW2nJkb-84" value="&lt;font face=&quot;Comic Sans MS&quot; style=&quot;font-size: 16px;&quot;&gt;TimeService&lt;/font&gt;" style="ellipse;whiteSpace=wrap;html=1;sketch=1;curveFitting=1;jiggle=2;" vertex="1" parent="Iig9CXE_6_gS4VW2nJkb-100">
          <mxGeometry x="90" y="280" width="100" height="90" as="geometry" />
        </mxCell>
        <mxCell id="Iig9CXE_6_gS4VW2nJkb-85" value="" style="rounded=1;whiteSpace=wrap;html=1;sketch=1;curveFitting=1;jiggle=2;" vertex="1" parent="Iig9CXE_6_gS4VW2nJkb-100">
          <mxGeometry x="310" y="100" width="180" height="230" as="geometry" />
        </mxCell>
        <mxCell id="Iig9CXE_6_gS4VW2nJkb-86" value="&lt;font style=&quot;font-size: 12px;&quot;&gt;OnRecord(record)&lt;/font&gt;" style="rounded=1;whiteSpace=wrap;html=1;fontFamily=Comic Sans MS;fontSize=16;sketch=1;curveFitting=1;jiggle=2;fillColor=none;" vertex="1" parent="Iig9CXE_6_gS4VW2nJkb-100">
          <mxGeometry x="340" y="130" width="120" height="60" as="geometry" />
        </mxCell>
        <mxCell id="Iig9CXE_6_gS4VW2nJkb-87" value="&lt;font style=&quot;font-size: 14px;&quot;&gt;OnTimer()&lt;/font&gt;" style="rounded=1;whiteSpace=wrap;html=1;fontFamily=Comic Sans MS;fontSize=16;sketch=1;curveFitting=1;jiggle=2;fillColor=none;" vertex="1" parent="Iig9CXE_6_gS4VW2nJkb-100">
          <mxGeometry x="340" y="250" width="120" height="60" as="geometry" />
        </mxCell>
        <mxCell id="Iig9CXE_6_gS4VW2nJkb-88" style="edgeStyle=orthogonalEdgeStyle;rounded=0;orthogonalLoop=1;jettySize=auto;html=1;entryX=0;entryY=0.633;entryDx=0;entryDy=0;entryPerimeter=0;sketch=1;curveFitting=1;jiggle=2;curved=1;" edge="1" parent="Iig9CXE_6_gS4VW2nJkb-100" source="Iig9CXE_6_gS4VW2nJkb-84" target="Iig9CXE_6_gS4VW2nJkb-87">
          <mxGeometry relative="1" as="geometry" />
        </mxCell>
        <mxCell id="Iig9CXE_6_gS4VW2nJkb-89" value="WatermarkGenerator" style="text;html=1;align=center;verticalAlign=middle;whiteSpace=wrap;rounded=0;fontSize=16;fontFamily=Comic Sans MS;" vertex="1" parent="Iig9CXE_6_gS4VW2nJkb-100">
          <mxGeometry x="370" y="60" width="60" height="30" as="geometry" />
        </mxCell>
        <mxCell id="Iig9CXE_6_gS4VW2nJkb-90" value="&lt;div style=&quot;background-color: rgb(255, 255, 255); color: rgb(8, 8, 8); font-size: 15px;&quot;&gt;scheduleWithFixedDelay&lt;/div&gt;" style="text;html=1;align=center;verticalAlign=middle;whiteSpace=wrap;rounded=0;fontFamily=Comic Sans MS;fontSize=15;" vertex="1" parent="Iig9CXE_6_gS4VW2nJkb-100">
          <mxGeometry x="250" y="340" width="60" height="30" as="geometry" />
        </mxCell>
        <mxCell id="Iig9CXE_6_gS4VW2nJkb-94" style="edgeStyle=orthogonalEdgeStyle;rounded=0;orthogonalLoop=1;jettySize=auto;html=1;entryX=0;entryY=0.5;entryDx=0;entryDy=0;sketch=1;curveFitting=1;jiggle=2;" edge="1" parent="Iig9CXE_6_gS4VW2nJkb-100" source="Iig9CXE_6_gS4VW2nJkb-91" target="Iig9CXE_6_gS4VW2nJkb-86">
          <mxGeometry relative="1" as="geometry" />
        </mxCell>
        <mxCell id="Iig9CXE_6_gS4VW2nJkb-91" value="&lt;font style=&quot;font-size: 16px;&quot; face=&quot;Comic Sans MS&quot;&gt;Record&lt;/font&gt;" style="rounded=1;whiteSpace=wrap;html=1;sketch=1;curveFitting=1;jiggle=2;" vertex="1" parent="Iig9CXE_6_gS4VW2nJkb-100">
          <mxGeometry y="130" width="120" height="60" as="geometry" />
        </mxCell>
        <mxCell id="Iig9CXE_6_gS4VW2nJkb-95" value="Source Reader" style="text;html=1;align=center;verticalAlign=middle;whiteSpace=wrap;rounded=0;sketch=1;curveFitting=1;jiggle=2;fontSize=16;fontFamily=Comic Sans MS;" vertex="1" parent="Iig9CXE_6_gS4VW2nJkb-100">
          <mxGeometry x="90" y="20" width="60" height="30" as="geometry" />
        </mxCell>
        <mxCell id="Iig9CXE_6_gS4VW2nJkb-97" value="&lt;font face=&quot;Comic Sans MS&quot;&gt;&lt;span style=&quot;font-size: 14px;&quot;&gt;TimeStamp&lt;/span&gt;&lt;/font&gt;&lt;div&gt;&lt;font face=&quot;Comic Sans MS&quot;&gt;&lt;span style=&quot;font-size: 14px;&quot;&gt;Watermark&lt;/span&gt;&lt;/font&gt;&lt;/div&gt;" style="ellipse;shape=cloud;whiteSpace=wrap;html=1;sketch=1;curveFitting=1;jiggle=2;" vertex="1" parent="Iig9CXE_6_gS4VW2nJkb-100">
          <mxGeometry x="530" y="170" width="120" height="80" as="geometry" />
        </mxCell>
        <mxCell id="Iig9CXE_6_gS4VW2nJkb-98" style="edgeStyle=orthogonalEdgeStyle;rounded=0;orthogonalLoop=1;jettySize=auto;html=1;entryX=0.16;entryY=0.55;entryDx=0;entryDy=0;entryPerimeter=0;sketch=1;curveFitting=1;jiggle=2;curved=1;" edge="1" parent="Iig9CXE_6_gS4VW2nJkb-100" source="Iig9CXE_6_gS4VW2nJkb-86" target="Iig9CXE_6_gS4VW2nJkb-97">
          <mxGeometry relative="1" as="geometry" />
        </mxCell>
        <mxCell id="Iig9CXE_6_gS4VW2nJkb-99" style="edgeStyle=orthogonalEdgeStyle;rounded=0;orthogonalLoop=1;jettySize=auto;html=1;entryX=0.092;entryY=0.625;entryDx=0;entryDy=0;entryPerimeter=0;sketch=1;curveFitting=1;jiggle=2;shadow=1;curved=1;" edge="1" parent="Iig9CXE_6_gS4VW2nJkb-100" source="Iig9CXE_6_gS4VW2nJkb-87" target="Iig9CXE_6_gS4VW2nJkb-97">
          <mxGeometry relative="1" as="geometry" />
        </mxCell>
        <mxCell id="Iig9CXE_6_gS4VW2nJkb-163" value="" style="group" vertex="1" connectable="0" parent="1">
          <mxGeometry x="80" y="1540" width="1110" height="600" as="geometry" />
        </mxCell>
        <mxCell id="Iig9CXE_6_gS4VW2nJkb-124" value="&lt;pre style=&quot;background-color: rgb(255, 255, 255); font-family: Monaco, monospace; font-size: 11px;&quot;&gt;&lt;pre style=&quot;font-family: Monaco, monospace; font-size: 11px;&quot;&gt;Coordinator&lt;/pre&gt;&lt;pre style=&quot;font-family: Monaco, monospace; font-size: 11px;&quot;&gt;MaxWatermark&lt;/pre&gt;&lt;/pre&gt;" style="text;html=1;align=center;verticalAlign=middle;whiteSpace=wrap;rounded=0;fontFamily=Comic Sans MS;fontSize=11;" vertex="1" parent="Iig9CXE_6_gS4VW2nJkb-163">
          <mxGeometry x="315" y="300" width="60" height="30" as="geometry" />
        </mxCell>
        <mxCell id="Iig9CXE_6_gS4VW2nJkb-116" value="&lt;pre style=&quot;background-color: rgb(255, 255, 255); font-family: Monaco, monospace; font-size: 12px;&quot;&gt;&lt;span style=&quot;font-size: 12px;&quot;&gt;Redaer&lt;/span&gt;&lt;/pre&gt;&lt;pre style=&quot;background-color: rgb(255, 255, 255); font-family: Monaco, monospace; font-size: 12px;&quot;&gt;&lt;span style=&quot;font-size: 12px;&quot;&gt;MaxWatermark&lt;/span&gt;&lt;/pre&gt;" style="text;html=1;align=center;verticalAlign=middle;whiteSpace=wrap;rounded=0;fontFamily=Comic Sans MS;fontSize=12;fontColor=default;" vertex="1" parent="Iig9CXE_6_gS4VW2nJkb-163">
          <mxGeometry x="130" y="300" width="60" height="30" as="geometry" />
        </mxCell>
        <mxCell id="Iig9CXE_6_gS4VW2nJkb-53" value="&lt;pre style=&quot;background-color: rgb(255, 255, 255); font-family: Monaco, monospace; font-size: 11px;&quot;&gt;&lt;pre style=&quot;font-family: Monaco, monospace; font-size: 11px;&quot;&gt;Coordinator&lt;/pre&gt;&lt;pre style=&quot;font-family: Monaco, monospace; font-size: 11px;&quot;&gt;MaxWatermark&lt;/pre&gt;&lt;/pre&gt;" style="text;html=1;align=center;verticalAlign=middle;whiteSpace=wrap;rounded=0;fontFamily=Comic Sans MS;fontSize=11;" vertex="1" parent="Iig9CXE_6_gS4VW2nJkb-163">
          <mxGeometry x="160" y="350" width="60" height="30" as="geometry" />
        </mxCell>
        <mxCell id="Iig9CXE_6_gS4VW2nJkb-126" value="&lt;pre style=&quot;background-color: rgb(255, 255, 255); font-family: Monaco, monospace; font-size: 12px;&quot;&gt;&lt;span style=&quot;font-size: 12px;&quot;&gt;Redaer&lt;/span&gt;&lt;/pre&gt;&lt;pre style=&quot;background-color: rgb(255, 255, 255); font-family: Monaco, monospace; font-size: 12px;&quot;&gt;&lt;span style=&quot;font-size: 12px;&quot;&gt;MaxWatermark&lt;/span&gt;&lt;/pre&gt;" style="text;html=1;align=center;verticalAlign=middle;whiteSpace=wrap;rounded=0;fontFamily=Comic Sans MS;fontSize=12;fontColor=default;" vertex="1" parent="Iig9CXE_6_gS4VW2nJkb-163">
          <mxGeometry x="270" y="340" width="60" height="30" as="geometry" />
        </mxCell>
        <mxCell id="Iig9CXE_6_gS4VW2nJkb-120" style="edgeStyle=orthogonalEdgeStyle;rounded=0;orthogonalLoop=1;jettySize=auto;html=1;entryX=1;entryY=0;entryDx=0;entryDy=0;curved=1;exitX=0.375;exitY=1;exitDx=0;exitDy=0;sketch=1;curveFitting=1;jiggle=2;fillColor=#d5e8d4;strokeColor=#82b366;" edge="1" parent="Iig9CXE_6_gS4VW2nJkb-163" source="Iig9CXE_6_gS4VW2nJkb-49" target="Iig9CXE_6_gS4VW2nJkb-51">
          <mxGeometry relative="1" as="geometry" />
        </mxCell>
        <mxCell id="Iig9CXE_6_gS4VW2nJkb-49" value="&lt;pre style=&quot;background-color: rgb(255, 255, 255); font-size: 12.8pt;&quot;&gt;&lt;font face=&quot;Comic Sans MS&quot;&gt;Source1&lt;/font&gt;&lt;/pre&gt;&lt;pre style=&quot;background-color: rgb(255, 255, 255); color: rgb(8, 8, 8); font-size: 12.8pt;&quot;&gt;&lt;span style=&quot;color: rgb(0, 0, 0);&quot;&gt;&lt;font face=&quot;Comic Sans MS&quot;&gt;Coordinator&lt;/font&gt;&lt;/span&gt;&lt;/pre&gt;" style="shape=hexagon;perimeter=hexagonPerimeter2;whiteSpace=wrap;html=1;fixedSize=1;sketch=1;curveFitting=1;jiggle=2;rounded=1;" vertex="1" parent="Iig9CXE_6_gS4VW2nJkb-163">
          <mxGeometry x="170" y="180" width="150" height="110" as="geometry" />
        </mxCell>
        <mxCell id="Iig9CXE_6_gS4VW2nJkb-50" style="edgeStyle=orthogonalEdgeStyle;rounded=0;orthogonalLoop=1;jettySize=auto;html=1;sketch=1;curveFitting=1;jiggle=2;fillColor=#d5e8d4;strokeColor=#82b366;" edge="1" parent="Iig9CXE_6_gS4VW2nJkb-163" source="Iig9CXE_6_gS4VW2nJkb-51" target="Iig9CXE_6_gS4VW2nJkb-110">
          <mxGeometry relative="1" as="geometry">
            <mxPoint x="130" y="510" as="targetPoint" />
          </mxGeometry>
        </mxCell>
        <mxCell id="Iig9CXE_6_gS4VW2nJkb-51" value="&lt;font style=&quot;font-size: 16px;&quot;&gt;Reader1&lt;/font&gt;" style="ellipse;whiteSpace=wrap;html=1;sketch=1;curveFitting=1;jiggle=2;fontSize=16;fontFamily=Comic Sans MS;" vertex="1" parent="Iig9CXE_6_gS4VW2nJkb-163">
          <mxGeometry x="90" y="390" width="80" height="70" as="geometry" />
        </mxCell>
        <mxCell id="Iig9CXE_6_gS4VW2nJkb-122" style="edgeStyle=orthogonalEdgeStyle;rounded=0;orthogonalLoop=1;jettySize=auto;html=1;entryX=0.625;entryY=1;entryDx=0;entryDy=0;sketch=1;curveFitting=1;jiggle=2;curved=1;fillColor=#dae8fc;strokeColor=#6c8ebf;" edge="1" parent="Iig9CXE_6_gS4VW2nJkb-163" source="Iig9CXE_6_gS4VW2nJkb-52" target="Iig9CXE_6_gS4VW2nJkb-49">
          <mxGeometry relative="1" as="geometry" />
        </mxCell>
        <mxCell id="Iig9CXE_6_gS4VW2nJkb-52" value="&lt;font style=&quot;font-size: 16px;&quot;&gt;Reader2&lt;/font&gt;" style="ellipse;whiteSpace=wrap;html=1;sketch=1;curveFitting=1;jiggle=2;fontFamily=Comic Sans MS;fontSize=16;" vertex="1" parent="Iig9CXE_6_gS4VW2nJkb-163">
          <mxGeometry x="310" y="390" width="80" height="70" as="geometry" />
        </mxCell>
        <mxCell id="Iig9CXE_6_gS4VW2nJkb-58" style="edgeStyle=orthogonalEdgeStyle;rounded=0;orthogonalLoop=1;jettySize=auto;html=1;entryX=0.5;entryY=0;entryDx=0;entryDy=0;entryPerimeter=0;sketch=1;curveFitting=1;jiggle=2;fillColor=#d5e8d4;strokeColor=#82b366;" edge="1" parent="Iig9CXE_6_gS4VW2nJkb-163" source="Iig9CXE_6_gS4VW2nJkb-52" target="Iig9CXE_6_gS4VW2nJkb-109">
          <mxGeometry relative="1" as="geometry">
            <mxPoint x="350" y="518" as="targetPoint" />
          </mxGeometry>
        </mxCell>
        <mxCell id="Iig9CXE_6_gS4VW2nJkb-101" value="ReaderMaxWatermark&lt;div&gt;&amp;nbsp;&amp;gt; CoordinatorMaxWatermark&lt;/div&gt;" style="text;html=1;align=center;verticalAlign=middle;whiteSpace=wrap;rounded=0;fontSize=14;" vertex="1" parent="Iig9CXE_6_gS4VW2nJkb-163">
          <mxGeometry y="470" width="60" height="30" as="geometry" />
        </mxCell>
        <mxCell id="Iig9CXE_6_gS4VW2nJkb-109" value="&lt;font face=&quot;Comic Sans MS&quot; style=&quot;font-size: 16px;&quot;&gt;Do Not Block&lt;/font&gt;" style="ellipse;whiteSpace=wrap;html=1;aspect=fixed;fillColor=#d5e8d4;strokeColor=#82b366;" vertex="1" parent="Iig9CXE_6_gS4VW2nJkb-163">
          <mxGeometry x="310" y="520" width="80" height="80" as="geometry" />
        </mxCell>
        <mxCell id="Iig9CXE_6_gS4VW2nJkb-110" value="&lt;font face=&quot;Comic Sans MS&quot; style=&quot;font-size: 16px;&quot;&gt;&amp;nbsp;Block&lt;/font&gt;" style="ellipse;whiteSpace=wrap;html=1;aspect=fixed;fillColor=#f8cecc;strokeColor=#b85450;" vertex="1" parent="Iig9CXE_6_gS4VW2nJkb-163">
          <mxGeometry x="90" y="520" width="80" height="80" as="geometry" />
        </mxCell>
        <mxCell id="Iig9CXE_6_gS4VW2nJkb-159" style="edgeStyle=orthogonalEdgeStyle;rounded=0;orthogonalLoop=1;jettySize=auto;html=1;entryX=1;entryY=0.25;entryDx=0;entryDy=0;curved=1;sketch=1;curveFitting=1;jiggle=2;fillColor=#d5e8d4;strokeColor=#82b366;" edge="1" parent="Iig9CXE_6_gS4VW2nJkb-163" source="Iig9CXE_6_gS4VW2nJkb-112" target="Iig9CXE_6_gS4VW2nJkb-49">
          <mxGeometry relative="1" as="geometry" />
        </mxCell>
        <mxCell id="Iig9CXE_6_gS4VW2nJkb-160" value="Fetch&amp;nbsp;&lt;div style=&quot;font-size: 15px;&quot;&gt;Aligned MaxWatermark&lt;/div&gt;" style="edgeLabel;html=1;align=center;verticalAlign=middle;resizable=0;points=[];fontFamily=Comic Sans MS;fontSize=15;" vertex="1" connectable="0" parent="Iig9CXE_6_gS4VW2nJkb-159">
          <mxGeometry x="-0.6044" y="5" relative="1" as="geometry">
            <mxPoint x="-79" y="25" as="offset" />
          </mxGeometry>
        </mxCell>
        <mxCell id="Iig9CXE_6_gS4VW2nJkb-161" style="edgeStyle=orthogonalEdgeStyle;rounded=0;orthogonalLoop=1;jettySize=auto;html=1;curved=1;sketch=1;curveFitting=1;jiggle=2;fillColor=#d5e8d4;strokeColor=#82b366;" edge="1" parent="Iig9CXE_6_gS4VW2nJkb-163" source="Iig9CXE_6_gS4VW2nJkb-112" target="Iig9CXE_6_gS4VW2nJkb-142">
          <mxGeometry relative="1" as="geometry" />
        </mxCell>
        <mxCell id="Iig9CXE_6_gS4VW2nJkb-112" value="&lt;font style=&quot;font-size: 16px;&quot; face=&quot;Comic Sans MS&quot;&gt;Coordinator&lt;/font&gt;&lt;div style=&quot;font-size: 16px;&quot;&gt;&lt;font style=&quot;font-size: 16px;&quot; face=&quot;Comic Sans MS&quot;&gt;Store&lt;/font&gt;&lt;/div&gt;" style="shape=cylinder3;whiteSpace=wrap;html=1;boundedLbl=1;backgroundOutline=1;size=15;sketch=1;curveFitting=1;jiggle=2;shadow=0;" vertex="1" parent="Iig9CXE_6_gS4VW2nJkb-163">
          <mxGeometry x="560" width="90" height="100" as="geometry" />
        </mxCell>
        <mxCell id="Iig9CXE_6_gS4VW2nJkb-119" style="edgeStyle=orthogonalEdgeStyle;rounded=0;orthogonalLoop=1;jettySize=auto;html=1;entryX=0.227;entryY=1.041;entryDx=0;entryDy=0;entryPerimeter=0;curved=1;sketch=1;curveFitting=1;jiggle=2;fillColor=#dae8fc;strokeColor=#6c8ebf;" edge="1" parent="Iig9CXE_6_gS4VW2nJkb-163" source="Iig9CXE_6_gS4VW2nJkb-51" target="Iig9CXE_6_gS4VW2nJkb-49">
          <mxGeometry relative="1" as="geometry">
            <Array as="points">
              <mxPoint x="130" y="330" />
              <mxPoint x="204" y="330" />
            </Array>
          </mxGeometry>
        </mxCell>
        <mxCell id="Iig9CXE_6_gS4VW2nJkb-123" style="edgeStyle=orthogonalEdgeStyle;rounded=0;orthogonalLoop=1;jettySize=auto;html=1;entryX=0.675;entryY=0.05;entryDx=0;entryDy=0;entryPerimeter=0;exitX=0.733;exitY=1.014;exitDx=0;exitDy=0;exitPerimeter=0;curved=1;sketch=1;curveFitting=1;jiggle=2;fillColor=#d5e8d4;strokeColor=#82b366;" edge="1" parent="Iig9CXE_6_gS4VW2nJkb-163" source="Iig9CXE_6_gS4VW2nJkb-49" target="Iig9CXE_6_gS4VW2nJkb-52">
          <mxGeometry relative="1" as="geometry">
            <Array as="points">
              <mxPoint x="310" y="292" />
              <mxPoint x="310" y="320" />
              <mxPoint x="364" y="320" />
            </Array>
          </mxGeometry>
        </mxCell>
        <mxCell id="Iig9CXE_6_gS4VW2nJkb-128" value="ReaderMaxWatermark&lt;div&gt;&amp;nbsp;&amp;lt;= CoordinatorMaxWatermark&lt;/div&gt;" style="text;html=1;align=center;verticalAlign=middle;whiteSpace=wrap;rounded=0;fontSize=14;" vertex="1" parent="Iig9CXE_6_gS4VW2nJkb-163">
          <mxGeometry x="430" y="470" width="60" height="30" as="geometry" />
        </mxCell>
        <mxCell id="Iig9CXE_6_gS4VW2nJkb-132" style="edgeStyle=orthogonalEdgeStyle;rounded=0;orthogonalLoop=1;jettySize=auto;html=1;entryX=0.145;entryY=1;entryDx=0;entryDy=-4.35;entryPerimeter=0;curved=1;sketch=1;curveFitting=1;jiggle=2;fillColor=#dae8fc;strokeColor=#6c8ebf;" edge="1" parent="Iig9CXE_6_gS4VW2nJkb-163" target="Iig9CXE_6_gS4VW2nJkb-112">
          <mxGeometry relative="1" as="geometry">
            <mxPoint x="319.5" y="235" as="sourcePoint" />
            <mxPoint x="559.5" y="67.5" as="targetPoint" />
          </mxGeometry>
        </mxCell>
        <mxCell id="Iig9CXE_6_gS4VW2nJkb-134" value="&lt;div&gt;&lt;font style=&quot;font-size: 16px;&quot; face=&quot;Comic Sans MS&quot;&gt;Align and Send&lt;/font&gt;&lt;/div&gt;&lt;font style=&quot;font-size: 16px;&quot; face=&quot;Comic Sans MS&quot;&gt;MaxWatermark&lt;/font&gt;" style="edgeLabel;html=1;align=center;verticalAlign=middle;resizable=0;points=[];" vertex="1" connectable="0" parent="Iig9CXE_6_gS4VW2nJkb-132">
          <mxGeometry x="-0.1475" y="7" relative="1" as="geometry">
            <mxPoint x="2" y="-10" as="offset" />
          </mxGeometry>
        </mxCell>
        <mxCell id="Iig9CXE_6_gS4VW2nJkb-137" value="&lt;pre style=&quot;background-color: rgb(255, 255, 255); font-family: Monaco, monospace; font-size: 11px;&quot;&gt;&lt;pre style=&quot;font-family: Monaco, monospace; font-size: 11px;&quot;&gt;Coordinator&lt;/pre&gt;&lt;pre style=&quot;font-family: Monaco, monospace; font-size: 11px;&quot;&gt;MaxWatermark&lt;/pre&gt;&lt;/pre&gt;" style="text;html=1;align=center;verticalAlign=middle;whiteSpace=wrap;rounded=0;fontFamily=Comic Sans MS;fontSize=11;" vertex="1" parent="Iig9CXE_6_gS4VW2nJkb-163">
          <mxGeometry x="935" y="300" width="60" height="30" as="geometry" />
        </mxCell>
        <mxCell id="Iig9CXE_6_gS4VW2nJkb-138" value="&lt;pre style=&quot;background-color: rgb(255, 255, 255); font-family: Monaco, monospace; font-size: 12px;&quot;&gt;&lt;span style=&quot;font-size: 12px;&quot;&gt;Redaer&lt;/span&gt;&lt;/pre&gt;&lt;pre style=&quot;background-color: rgb(255, 255, 255); font-family: Monaco, monospace; font-size: 12px;&quot;&gt;&lt;span style=&quot;font-size: 12px;&quot;&gt;MaxWatermark&lt;/span&gt;&lt;/pre&gt;" style="text;html=1;align=center;verticalAlign=middle;whiteSpace=wrap;rounded=0;fontFamily=Comic Sans MS;fontSize=12;fontColor=default;" vertex="1" parent="Iig9CXE_6_gS4VW2nJkb-163">
          <mxGeometry x="750" y="300" width="60" height="30" as="geometry" />
        </mxCell>
        <mxCell id="Iig9CXE_6_gS4VW2nJkb-139" value="&lt;pre style=&quot;background-color: rgb(255, 255, 255); font-family: Monaco, monospace; font-size: 11px;&quot;&gt;&lt;pre style=&quot;font-family: Monaco, monospace; font-size: 11px;&quot;&gt;Coordinator&lt;/pre&gt;&lt;pre style=&quot;font-family: Monaco, monospace; font-size: 11px;&quot;&gt;MaxWatermark&lt;/pre&gt;&lt;/pre&gt;" style="text;html=1;align=center;verticalAlign=middle;whiteSpace=wrap;rounded=0;fontFamily=Comic Sans MS;fontSize=11;" vertex="1" parent="Iig9CXE_6_gS4VW2nJkb-163">
          <mxGeometry x="780" y="350" width="60" height="30" as="geometry" />
        </mxCell>
        <mxCell id="Iig9CXE_6_gS4VW2nJkb-140" value="&lt;pre style=&quot;background-color: rgb(255, 255, 255); font-family: Monaco, monospace; font-size: 12px;&quot;&gt;&lt;span style=&quot;font-size: 12px;&quot;&gt;Redaer&lt;/span&gt;&lt;/pre&gt;&lt;pre style=&quot;background-color: rgb(255, 255, 255); font-family: Monaco, monospace; font-size: 12px;&quot;&gt;&lt;span style=&quot;font-size: 12px;&quot;&gt;MaxWatermark&lt;/span&gt;&lt;/pre&gt;" style="text;html=1;align=center;verticalAlign=middle;whiteSpace=wrap;rounded=0;fontFamily=Comic Sans MS;fontSize=12;fontColor=default;" vertex="1" parent="Iig9CXE_6_gS4VW2nJkb-163">
          <mxGeometry x="890" y="340" width="60" height="30" as="geometry" />
        </mxCell>
        <mxCell id="Iig9CXE_6_gS4VW2nJkb-141" style="edgeStyle=orthogonalEdgeStyle;rounded=0;orthogonalLoop=1;jettySize=auto;html=1;entryX=1;entryY=0;entryDx=0;entryDy=0;curved=1;exitX=0.375;exitY=1;exitDx=0;exitDy=0;sketch=1;curveFitting=1;jiggle=2;fillColor=#d5e8d4;strokeColor=#82b366;" edge="1" parent="Iig9CXE_6_gS4VW2nJkb-163" source="Iig9CXE_6_gS4VW2nJkb-142" target="Iig9CXE_6_gS4VW2nJkb-144">
          <mxGeometry relative="1" as="geometry" />
        </mxCell>
        <mxCell id="Iig9CXE_6_gS4VW2nJkb-142" value="&lt;pre style=&quot;background-color: rgb(255, 255, 255); font-size: 12.8pt;&quot;&gt;&lt;font face=&quot;Comic Sans MS&quot;&gt;Source1&lt;/font&gt;&lt;/pre&gt;&lt;pre style=&quot;background-color: rgb(255, 255, 255); color: rgb(8, 8, 8); font-size: 12.8pt;&quot;&gt;&lt;span style=&quot;color: rgb(0, 0, 0);&quot;&gt;&lt;font face=&quot;Comic Sans MS&quot;&gt;Coordinator&lt;/font&gt;&lt;/span&gt;&lt;/pre&gt;" style="shape=hexagon;perimeter=hexagonPerimeter2;whiteSpace=wrap;html=1;fixedSize=1;sketch=1;curveFitting=1;jiggle=2;rounded=1;" vertex="1" parent="Iig9CXE_6_gS4VW2nJkb-163">
          <mxGeometry x="790" y="180" width="150" height="110" as="geometry" />
        </mxCell>
        <mxCell id="Iig9CXE_6_gS4VW2nJkb-143" style="edgeStyle=orthogonalEdgeStyle;rounded=0;orthogonalLoop=1;jettySize=auto;html=1;sketch=1;curveFitting=1;jiggle=2;fillColor=#d5e8d4;strokeColor=#82b366;" edge="1" parent="Iig9CXE_6_gS4VW2nJkb-163" source="Iig9CXE_6_gS4VW2nJkb-144" target="Iig9CXE_6_gS4VW2nJkb-150">
          <mxGeometry relative="1" as="geometry">
            <mxPoint x="750" y="510" as="targetPoint" />
          </mxGeometry>
        </mxCell>
        <mxCell id="Iig9CXE_6_gS4VW2nJkb-144" value="&lt;font style=&quot;font-size: 16px;&quot;&gt;Reader1&lt;/font&gt;" style="ellipse;whiteSpace=wrap;html=1;sketch=1;curveFitting=1;jiggle=2;fontSize=16;fontFamily=Comic Sans MS;" vertex="1" parent="Iig9CXE_6_gS4VW2nJkb-163">
          <mxGeometry x="710" y="390" width="80" height="70" as="geometry" />
        </mxCell>
        <mxCell id="Iig9CXE_6_gS4VW2nJkb-145" style="edgeStyle=orthogonalEdgeStyle;rounded=0;orthogonalLoop=1;jettySize=auto;html=1;entryX=0.625;entryY=1;entryDx=0;entryDy=0;sketch=1;curveFitting=1;jiggle=2;curved=1;fillColor=#dae8fc;strokeColor=#6c8ebf;" edge="1" parent="Iig9CXE_6_gS4VW2nJkb-163" source="Iig9CXE_6_gS4VW2nJkb-146" target="Iig9CXE_6_gS4VW2nJkb-142">
          <mxGeometry relative="1" as="geometry" />
        </mxCell>
        <mxCell id="Iig9CXE_6_gS4VW2nJkb-146" value="&lt;font style=&quot;font-size: 16px;&quot;&gt;Reader2&lt;/font&gt;" style="ellipse;whiteSpace=wrap;html=1;sketch=1;curveFitting=1;jiggle=2;fontFamily=Comic Sans MS;fontSize=16;" vertex="1" parent="Iig9CXE_6_gS4VW2nJkb-163">
          <mxGeometry x="930" y="390" width="80" height="70" as="geometry" />
        </mxCell>
        <mxCell id="Iig9CXE_6_gS4VW2nJkb-147" style="edgeStyle=orthogonalEdgeStyle;rounded=0;orthogonalLoop=1;jettySize=auto;html=1;entryX=0.5;entryY=0;entryDx=0;entryDy=0;entryPerimeter=0;sketch=1;curveFitting=1;jiggle=2;fillColor=#d5e8d4;strokeColor=#82b366;" edge="1" parent="Iig9CXE_6_gS4VW2nJkb-163" source="Iig9CXE_6_gS4VW2nJkb-146" target="Iig9CXE_6_gS4VW2nJkb-149">
          <mxGeometry relative="1" as="geometry">
            <mxPoint x="970" y="518" as="targetPoint" />
          </mxGeometry>
        </mxCell>
        <mxCell id="Iig9CXE_6_gS4VW2nJkb-148" value="ReaderMaxWatermark&lt;div&gt;&amp;nbsp;&amp;gt; CoordinatorMaxWatermark&lt;/div&gt;" style="text;html=1;align=center;verticalAlign=middle;whiteSpace=wrap;rounded=0;fontSize=14;" vertex="1" parent="Iig9CXE_6_gS4VW2nJkb-163">
          <mxGeometry x="620" y="470" width="60" height="30" as="geometry" />
        </mxCell>
        <mxCell id="Iig9CXE_6_gS4VW2nJkb-149" value="&lt;font face=&quot;Comic Sans MS&quot; style=&quot;font-size: 16px;&quot;&gt;Do Not Block&lt;/font&gt;" style="ellipse;whiteSpace=wrap;html=1;aspect=fixed;fillColor=#d5e8d4;strokeColor=#82b366;" vertex="1" parent="Iig9CXE_6_gS4VW2nJkb-163">
          <mxGeometry x="930" y="520" width="80" height="80" as="geometry" />
        </mxCell>
        <mxCell id="Iig9CXE_6_gS4VW2nJkb-150" value="&lt;font face=&quot;Comic Sans MS&quot; style=&quot;font-size: 16px;&quot;&gt;&amp;nbsp;Block&lt;/font&gt;" style="ellipse;whiteSpace=wrap;html=1;aspect=fixed;fillColor=#f8cecc;strokeColor=#b85450;" vertex="1" parent="Iig9CXE_6_gS4VW2nJkb-163">
          <mxGeometry x="710" y="520" width="80" height="80" as="geometry" />
        </mxCell>
        <mxCell id="Iig9CXE_6_gS4VW2nJkb-151" style="edgeStyle=orthogonalEdgeStyle;rounded=0;orthogonalLoop=1;jettySize=auto;html=1;entryX=0.227;entryY=1.041;entryDx=0;entryDy=0;entryPerimeter=0;curved=1;sketch=1;curveFitting=1;jiggle=2;fillColor=#dae8fc;strokeColor=#6c8ebf;" edge="1" parent="Iig9CXE_6_gS4VW2nJkb-163" source="Iig9CXE_6_gS4VW2nJkb-144" target="Iig9CXE_6_gS4VW2nJkb-142">
          <mxGeometry relative="1" as="geometry">
            <Array as="points">
              <mxPoint x="750" y="330" />
              <mxPoint x="824" y="330" />
            </Array>
          </mxGeometry>
        </mxCell>
        <mxCell id="Iig9CXE_6_gS4VW2nJkb-152" style="edgeStyle=orthogonalEdgeStyle;rounded=0;orthogonalLoop=1;jettySize=auto;html=1;entryX=0.675;entryY=0.05;entryDx=0;entryDy=0;entryPerimeter=0;exitX=0.733;exitY=1.014;exitDx=0;exitDy=0;exitPerimeter=0;curved=1;sketch=1;curveFitting=1;jiggle=2;fillColor=#d5e8d4;strokeColor=#82b366;" edge="1" parent="Iig9CXE_6_gS4VW2nJkb-163" source="Iig9CXE_6_gS4VW2nJkb-142" target="Iig9CXE_6_gS4VW2nJkb-146">
          <mxGeometry relative="1" as="geometry">
            <Array as="points">
              <mxPoint x="930" y="292" />
              <mxPoint x="930" y="320" />
              <mxPoint x="984" y="320" />
            </Array>
          </mxGeometry>
        </mxCell>
        <mxCell id="Iig9CXE_6_gS4VW2nJkb-153" value="ReaderMaxWatermark&lt;div&gt;&amp;nbsp;&amp;lt;= CoordinatorMaxWatermark&lt;/div&gt;" style="text;html=1;align=center;verticalAlign=middle;whiteSpace=wrap;rounded=0;fontSize=14;" vertex="1" parent="Iig9CXE_6_gS4VW2nJkb-163">
          <mxGeometry x="1050" y="470" width="60" height="30" as="geometry" />
        </mxCell>
        <mxCell id="Iig9CXE_6_gS4VW2nJkb-154" style="edgeStyle=orthogonalEdgeStyle;rounded=0;orthogonalLoop=1;jettySize=auto;html=1;entryX=0.855;entryY=1;entryDx=0;entryDy=-4.35;entryPerimeter=0;curved=1;sketch=1;curveFitting=1;jiggle=2;fillColor=#dae8fc;strokeColor=#6c8ebf;" edge="1" parent="Iig9CXE_6_gS4VW2nJkb-163" source="Iig9CXE_6_gS4VW2nJkb-142" target="Iig9CXE_6_gS4VW2nJkb-112">
          <mxGeometry relative="1" as="geometry" />
        </mxCell>
        <mxCell id="Iig9CXE_6_gS4VW2nJkb-155" value="&lt;div&gt;&lt;font style=&quot;font-size: 16px;&quot; face=&quot;Comic Sans MS&quot;&gt;Align and Send&lt;/font&gt;&lt;/div&gt;&lt;font style=&quot;font-size: 16px;&quot; face=&quot;Comic Sans MS&quot;&gt;MaxWatermark&lt;/font&gt;" style="edgeLabel;html=1;align=center;verticalAlign=middle;resizable=0;points=[];" vertex="1" connectable="0" parent="Iig9CXE_6_gS4VW2nJkb-154">
          <mxGeometry x="-0.122" y="-2" relative="1" as="geometry">
            <mxPoint y="-53" as="offset" />
          </mxGeometry>
        </mxCell>
        <mxCell id="Iig9CXE_6_gS4VW2nJkb-162" value="Fetch&amp;nbsp;&lt;div style=&quot;font-size: 15px;&quot;&gt;Aligned MaxWatermark&lt;/div&gt;" style="edgeLabel;html=1;align=center;verticalAlign=middle;resizable=0;points=[];fontFamily=Comic Sans MS;fontSize=15;" vertex="1" connectable="0" parent="Iig9CXE_6_gS4VW2nJkb-163">
          <mxGeometry x="810" y="90" as="geometry" />
        </mxCell>
      </root>
    </mxGraphModel>
  </diagram>
</mxfile>
